<?xml version="1.0" encoding="iso-8859-1"?>
<!DOCTYPE svg PUBLIC "-//W3C//DTD SVG 1.1 Basic//EN" "http://www.w3.org/Graphics/SVG/1.1/DTD/svg11-basic.dtd">
<svg version="1.1" baseProfile="basic"
   xmlns="http://www.w3.org/2000/svg" xmlns:xlink="http://www.w3.org/1999/xlink" x="0px" y="0px" width="32px" height="32px"
   viewBox="0 0 32 32" xml:space="preserve">
  <path transform="matrix(0.032,0,0,0.032,0,8)" stroke="none" style="fill:#FDF730" d="M 681 133 C 681 155 663 173 641 173 C 620 173 602 155 602 133 C 602 111 620 93 641 93 C 663 93 681 111 681 133 z M 530 0 L 530 462 L 753 462 L 753 0 L 530 0 z M 641 400 C 602 400 570 368 570 329 C 570 289 602 257 641 257 C 681 257 713 289 713 329 C 713 368 681 400 641 400 z M 641 204 C 602 204 570 172 570 133 C 570 94 602 62 641 62 C 681 62 713 94 713 133 C 713 172 681 204 641 204 z M 681 329 C 681 350 663 368 641 368 C 620 368 602 350 602 329 C 602 307 620 289 641 289 C 663 289 681 307 681 329 z M 397 133 C 397 155 379 173 358 173 C 336 173 318 155 318 133 C 318 111 336 93 358 93 C 379 93 397 111 397 133 z M 246 0 L 246 462 L 469 462 L 469 0 L 246 0 z M 358 400 C 318 400 286 368 286 329 C 286 289 318 257 358 257 C 397 257 429 289 429 329 C 429 368 397 400 358 400 z M 358 204 C 318 204 286 172 286 133 C 286 94 318 62 358 62 C 397 62 429 94 429 133 C 429 172 397 204 358 204 z M 397 329 C 397 350 379 368 358 368 C 336 368 318 350 318 329 C 318 307 336 289 358 289 C 379 289 397 307 397 329 z M 815 326 C 845 303 862 268 862 231 C 862 193 845 159 815 136 C 808 131 798 132 793 139 C 788 146 790 155 796 160 C 819 177 831 203 831 231 C 831 259 819 284 796 301 C 790 306 788 316 793 323 C 796 327 801 329 806 329 C 809 329 812 328 815 326 z M 864 374 C 907 338 931 286 931 231 C 931 175 907 123 864 87 C 858 82 848 83 843 89 C 838 96 838 105 845 111 C 880 141 900 184 900 231 C 900 277 880 321 845 351 C 838 356 838 366 843 372 C 846 376 850 378 855 378 C 858 378 862 376 864 374 z M 931 437 C 976 378 1000 307 1000 232 C 1000 156 975 84 929 24 C 924 17 914 16 907 21 C 901 26 899 36 904 43 C 947 97 969 163 969 232 C 969 300 947 365 907 419 C 902 426 903 435 910 440 C 912 442 916 443 919 443 C 924 443 928 441 931 437 z M 193 329 C 198 329 203 327 206 323 C 211 316 209 306 203 301 C 180 284 168 259 168 231 C 168 203 180 177 203 160 C 209 155 211 146 206 139 C 201 132 191 131 184 136 C 154 159 137 193 137 231 C 137 268 154 303 184 326 C 187 328 190 329 193 329 z M 144 378 C 149 378 153 376 156 372 C 161 366 161 356 154 351 C 119 321 99 277 99 231 C 99 184 119 141 154 111 C 161 105 161 96 156 89 C 151 83 141 82 135 87 C 92 123 68 175 68 231 C 68 286 92 338 135 374 C 137 376 141 378 144 378 z M 80 443 C 83 443 87 442 89 440 C 96 435 97 426 92 419 C 52 365 30 300 30 232 C 30 163 52 97 95 43 C 100 36 98 26 92 21 C 85 16 75 17 70 24 C 24 84 0 156 0 232 C 0 307 23 378 68 437 C 71 441 75 443 80 443 z"/>
</svg>